<svg
            viewBox="0 0 36 36"
            fill="none"
            xmlns="http://www.w3.org/2000/svg"
          >
            <path
              d="M1.3103 18.1295C1.3103 27.2706 8.72015 34.6805 17.8612 34.6805C27.0023 34.6805 34.4122 27.2706 34.4122 18.1295C34.4122 8.98846 27.0023 1.57861 17.8612 1.57861C8.72015 1.57861 1.3103 8.98846 1.3103 18.1295Z"
              stroke="#191919"
              stroke-width="2.38333"
              stroke-linecap="round"
              stroke-linejoin="round"
            />
            <path
              d="M19.5156 1.66309C19.5156 1.66309 24.4809 8.2007 24.4809 18.1313C24.4809 28.0618 19.5156 34.5994 19.5156 34.5994M16.2054 34.5994C16.2054 34.5994 11.2401 28.0618 11.2401 18.1313C11.2401 8.2007 16.2054 1.66309 16.2054 1.66309M2.35229 23.9241H33.3687M2.35229 12.3384H33.3687"
              stroke="#191919"
              stroke-width="2.38333"
              stroke-linecap="round"
              stroke-linejoin="round"
            />
          </svg>