<svg
                width="1.5rem"
                height="1rem"
                viewBox="0 0 28 21"
                fill="none"
                xmlns="http://www.w3.org/2000/svg"
              >
                <path
                  d="M26.8079 10.7305L17.1174 19.959H17.1467L16.6956 20.3906C16.4506 20.6243 16.1197 20.7537 15.7776 20.7549C15.4355 20.7559 15.1043 20.6285 14.8577 20.3965C14.6106 20.164 14.4683 19.8449 14.467 19.5088C14.4658 19.1726 14.6063 18.8524 14.8518 18.6182L21.9905 11.7988L2.42017 11.7988C2.07828 11.7987 1.74785 11.6702 1.5022 11.4375C1.25612 11.2043 1.11548 10.8848 1.11548 10.5488C1.1156 10.2131 1.25625 9.89426 1.5022 9.66113C1.74785 9.42841 2.07828 9.29893 2.42017 9.29883L21.9895 9.29883L14.8547 2.4834C14.7162 2.38102 14.5984 2.2541 14.512 2.10645C14.42 1.94934 14.3648 1.7743 14.3499 1.59375C14.335 1.41317 14.3617 1.23195 14.427 1.0625C14.4923 0.893069 14.5948 0.740106 14.7268 0.613281C14.8587 0.486556 15.0163 0.38791 15.1897 0.325195C15.3632 0.262492 15.549 0.236884 15.7336 0.248047C15.9183 0.259213 16.0988 0.307326 16.2629 0.390625C16.4189 0.469809 16.5567 0.579238 16.6682 0.711914L26.8079 10.3682L26.9973 10.5488L26.8079 10.7305Z"
                  fill="#191919"
                  stroke="black"
                  stroke-width="0.5"
                />
              </svg>