<svg
                viewBox="0 0 33 32"
                fill="none"
                xmlns="http://www.w3.org/2000/svg"
              >
                <path
                  d="M23.6479 20.678C25.5979 18.0548 26.4713 14.8025 26.0934 11.5718C25.7154 8.34111 24.1139 5.37021 21.6094 3.2535C19.1048 1.13678 15.8818 0.0303559 12.5853 0.155573C9.28872 0.280791 6.16168 1.62842 3.82977 3.92884C1.49786 6.22927 0.133044 9.31284 0.00838103 12.5626C-0.116282 15.8124 1.0084 18.9888 3.15741 21.4563C5.30643 23.9237 8.32129 25.5003 11.5988 25.8706C14.8764 26.2409 18.1749 25.3776 20.8345 23.4534H20.8325C20.8915 23.5328 20.9573 23.6089 21.0298 23.6817L28.7833 31.325C29.1609 31.6975 29.6732 31.9069 30.2074 31.9071C30.7416 31.9072 31.254 31.6982 31.6319 31.326C32.0098 30.9537 32.2222 30.4487 32.2224 29.9221C32.2226 29.3955 32.0106 28.8903 31.6329 28.5178L23.8795 20.8745C23.8075 20.8026 23.7301 20.7382 23.6479 20.678ZM24.1675 13.0466C24.1675 14.4805 23.881 15.9003 23.3243 17.2251C22.7677 18.5499 21.9518 19.7536 20.9233 20.7675C19.8947 21.7814 18.6737 22.5857 17.3298 23.1344C15.986 23.6831 14.5457 23.9656 13.0911 23.9656C11.6365 23.9656 10.1962 23.6831 8.85235 23.1344C7.5085 22.5857 6.28745 21.7814 5.25891 20.7675C4.23038 19.7536 3.4145 18.5499 2.85786 17.2251C2.30122 15.9003 2.01472 14.4805 2.01472 13.0466C2.01472 10.1507 3.18169 7.3734 5.25891 5.32569C7.33614 3.27798 10.1535 2.12759 13.0911 2.12759C16.0287 2.12759 18.846 3.27798 20.9233 5.32569C23.0005 7.3734 24.1675 10.1507 24.1675 13.0466Z"
                  fill="#191919"
                />
              </svg>