<svg
            width="178"
            height="178"
            viewBox="0 0 178 178"
            fill="none"
            xmlns="http://www.w3.org/2000/svg"
          >
            <path
              fill-rule="evenodd"
              clip-rule="evenodd"
              d="M89 155.75C97.7657 155.75 106.446 154.023 114.544 150.669C122.643 147.314 130.001 142.398 136.199 136.199C142.398 130.001 147.314 122.643 150.669 114.544C154.023 106.446 155.75 97.7657 155.75 89C155.75 80.2343 154.023 71.5544 150.669 63.4559C147.314 55.3574 142.398 47.9989 136.199 41.8006C130.001 35.6023 122.643 30.6855 114.544 27.331C106.446 23.9765 97.7657 22.25 89 22.25C71.2968 22.25 54.3187 29.2826 41.8006 41.8006C29.2826 54.3187 22.25 71.2968 22.25 89C22.25 106.703 29.2826 123.681 41.8006 136.199C54.3187 148.717 71.2968 155.75 89 155.75ZM79.9739 59.2592L121.834 82.5178C122.989 83.1603 123.952 84.1001 124.622 85.2398C125.293 86.3795 125.646 87.6778 125.646 89C125.646 90.3222 125.293 91.6205 124.622 92.7602C123.952 93.8999 122.989 94.8396 121.834 95.4822L79.9739 118.741C78.6185 119.494 77.0898 119.88 75.5392 119.861C73.9886 119.842 72.47 119.418 71.1338 118.631C69.7975 117.844 68.6901 116.722 67.9212 115.375C67.1523 114.028 66.7485 112.504 66.75 110.953V67.0467C66.7485 65.496 67.1523 63.9718 67.9212 62.6251C68.6901 61.2785 69.7975 60.1561 71.1338 59.3692C72.47 58.5823 73.9886 58.1582 75.5392 58.1389C77.0898 58.1196 78.6185 58.5058 79.9739 59.2592Z"
              fill="white"
              fill-opacity="0.8"
            />
          </svg>